Coordinates
version=1
nRows=9
nColumns=38
inDegrees=yes

Units are S.I. units (second, meters, Newtons, ...)
Angles are in degrees.

endheader
time	pelvis_tilt	pelvis_list	pelvis_rotation	pelvis_tx	pelvis_ty	pelvis_tz	hip_flexion_r	hip_adduction_r	hip_rotation_r	knee_angle_r	ankle_angle_r	subtalar_angle_r	mtp_angle_r	hip_flexion_l	hip_adduction_l	hip_rotation_l	knee_angle_l	ankle_angle_l	subtalar_angle_l	mtp_angle_l	lumbar_extension	lumbar_bending	lumbar_rotation	arm_flex_r	arm_add_r	arm_rot_r	elbow_flex_r	pro_sup_r	wrist_flex_r	wrist_dev_r	arm_flex_l	arm_add_l	arm_rot_l	elbow_flex_l	pro_sup_l	wrist_flex_l	wrist_dev_l
      0.86000000	      0.19999900	     -3.93122945	      8.54575054	      1.28928832	      0.90299064	      0.01018683	      6.02589353	      7.03025218	     -1.63521775	     -8.06622447	      6.32369351	      0.00000000	      0.00000000	     16.55772133	     -0.69657174	      9.49823851	    -63.46729703	      4.77948324	      0.00000000	      0.00000000	     -6.14131883	      8.21054866	     -6.46546520	     -3.01360007	    -14.60390694	    -20.38467349	     37.15286371	    115.17066660	      0.00000000	      0.00000000	      1.19135217	    -12.05952234	      1.90843774	     44.05492765	    109.05253775	      0.00000000	      0.00000000
      0.86500000	      0.19023302	     -3.88936393	      8.45364123	      1.29371844	      0.90351781	      0.01064624	      5.58818507	      7.04540759	     -1.80155448	     -7.84025950	      6.38557889	      0.00000000	      0.00000000	     17.21937151	     -0.59933078	      9.47732219	    -63.07892056	      4.86541699	      0.00000000	      0.00000000	     -6.25380083	      8.14825002	     -6.10373055	     -2.58931675	    -14.59134512	    -20.27782298	     37.32324379	    115.16185602	      0.00000000	      0.00000000	      0.87983297	    -12.14893014	      1.86880071	     43.95067809	    109.06208126	      0.00000000	      0.00000000
      0.87000000	      0.16295214	     -3.60784087	      8.36073834	      1.29854699	      0.90415074	      0.01106710	      4.88677021	      6.83576017	     -1.44920924	     -7.20836269	      6.45638970	      0.00000000	      0.00000000	     17.74580229	     -0.24497079	      9.38246668	    -62.49638623	      5.51934788	      0.00000000	      0.00000000	     -6.30176739	      7.80758775	     -6.07202747	     -2.07318876	    -14.58281056	    -19.52751056	     37.51050427	    115.12713020	      0.00000000	      0.00000000	      0.25499088	    -12.28738450	      1.49090191	     43.93421212	    109.08462958	      0.00000000	      0.00000000
      0.87500000	      0.35254204	     -3.50780303	      8.14136698	      1.30318431	      0.90483544	      0.01160600	      4.08539623	      6.82863226	     -1.22868162	     -6.72970684	      6.47533235	      0.00000000	      0.00000000	     18.11074446	     -0.21436779	      9.12031280	    -61.96316384	      5.90923405	      0.00000000	      0.00000000	     -6.64653833	      7.71618968	     -5.86733721	     -1.51196836	    -14.79168985	    -18.17461475	     37.70227237	    114.93606220	      0.00000000	      0.00000000	     -0.35177621	    -12.31060870	      0.68411360	     44.08384478	    109.13906438	      0.00000000	      0.00000000
      0.88000000	      0.30663051	     -3.46569344	      8.07236438	      1.30744466	      0.90518816	      0.01217453	      3.68494923	      6.84575620	     -1.43244634	     -6.47251857	      6.54506453	      0.00000000	      0.00000000	     18.80541115	     -0.13832625	      9.10886930	    -61.40361896	      6.02283639	      0.00000000	      0.00000000	     -6.72789243	      7.62718212	     -5.52271121	     -1.05374934	    -14.73215182	    -18.11223014	     37.91396764	    114.92106430	      0.00000000	      0.00000000	     -0.61310141	    -12.42436486	      0.65975418	     43.96282385	    109.14632630	      0.00000000	      0.00000000
      0.88500000	      0.19446889	     -3.17423800	      7.95616653	      1.31223854	      0.90550643	      0.01254964	      3.13637759	      6.58914122	     -1.11889706	     -5.96688024	      6.67618024	      0.00000000	      0.00000000	     19.39313818	      0.21242469	      8.96785799	    -60.67399148	      6.61708034	      0.00000000	      0.00000000	     -6.67920129	      7.25817357	     -5.42114930	     -0.61094833	    -14.69431896	    -17.64892830	     38.16429794	    114.83774735	      0.00000000	      0.00000000	     -1.22719225	    -12.54796967	      0.33204574	     43.81938458	    109.14095788	      0.00000000	      0.00000000
      0.89000000	      0.19659445	     -3.03740345	      7.76611412	      1.31683766	      0.90590429	      0.01296170	      2.56712637	      6.49974236	     -0.93926062	     -5.57402830	      6.72290650	      0.00000000	      0.00000000	     19.90831680	      0.32450965	      8.75191605	    -59.94424626	      6.81950710	      0.00000000	      0.00000000	     -6.79425805	      7.11548078	     -5.22565765	     -0.07991808	    -14.79592464	    -16.72793714	     38.40538973	    114.62549321	      0.00000000	      0.00000000	     -1.74957272	    -12.51031678	     -0.39674830	     43.80440824	    109.09835400	      0.00000000	      0.00000000
      0.89500000	      0.12026255	     -2.97062930	      7.67565206	      1.32152412	      0.90605946	      0.01341754	      2.14483709	      6.48499139	     -1.05000372	     -5.26264344	      6.83318504	      0.00000000	      0.00000000	     20.50564125	      0.38719033	      8.62413311	    -59.15229340	      7.04099864	      0.00000000	      0.00000000	     -6.76595981	      7.00538847	     -4.97054888	      0.31691982	    -14.74400161	    -16.63543974	     38.63388663	    114.59320554	      0.00000000	      0.00000000	     -2.19101227	    -12.63688369	     -0.46846682	     43.62198461	    109.09874763	      0.00000000	      0.00000000
      0.90000000	      0.04992856	     -2.76713021	      7.50105459	      1.32615291	      0.90628602	      0.01382926	      1.61180009	      6.32443413	     -0.68663866	     -4.79343781	      6.95349604	      0.00000000	      0.00000000	     21.03533978	      0.62712351	      8.49795672	    -58.27092781	      7.36668765	      0.00000000	      0.00000000	     -6.80027206	      6.75140705	     -4.71795864	      0.76734725	    -14.75848700	    -16.15138965	     38.87708894	    114.51189341	      0.00000000	      0.00000000	     -2.64942929	    -12.67865169	     -0.93583621	     43.49850399	    109.02160956	      0.00000000	      0.00000000
